<?xml version="1.0" encoding="UTF-8" standalone="no"?>
<svg
   xmlns:dc="http://purl.org/dc/elements/1.1/"
   xmlns:cc="http://creativecommons.org/ns#"
   xmlns:rdf="http://www.w3.org/1999/02/22-rdf-syntax-ns#"
   xmlns:svg="http://www.w3.org/2000/svg"
   xmlns="http://www.w3.org/2000/svg"
   viewBox="0 0 150.21333 150.21333"
   height="150.21333"
   width="150.21333"
   xml:space="preserve"
   id="svg2"
   version="1.1"><metadata
     id="metadata8"><rdf:RDF><cc:Work
         rdf:about=""><dc:format>image/svg+xml</dc:format><dc:type
           rdf:resource="http://purl.org/dc/dcmitype/StillImage" /></cc:Work></rdf:RDF></metadata><defs
        id="defs6"/>
    <g
     transform="matrix(1.3333333,0,0,-1.3333333,0,150.21333)"
     id="g10"><g
       transform="scale(0.1)"
       id="g12"><path
         id="path14"
         style="fill:#f68b22;fill-opacity:1;fill-rule:nonzero;stroke:none"
         d="m 1126.59,1070.18 c 0,31.17 -25.18,56.42 -56.27,56.42 H 56.2734 C 25.1992,1126.6 0,1101.35 0,1070.18 V 912.02 c 0,-20.313 20.1328,-34.633 48.8516,-14.672 86.6714,60.441 199.4184,89.437 335.3084,89.437 128.242,0.074 234.735,-29.945 315.93,-92.379 63.086,-48.34 105.332,-112.859 124.098,-189.836 1.71,-6.984 2.687,-14.621 2.687,-23.101 -0.098,-14.992 -3.027,-33.442 -15.77,-50.512 -12.558,-17.293 -36.171,-28.551 -61.972,-28.027 H 569.641 c -28.258,-0.211 -52.153,8.386 -69.399,21 -17.344,12.586 -28.41,27.035 -38.48,38.5 -21.364,22.836 -31.43,36.957 -82.157,38.41 -32.746,0.117 -53.203,-6.801 -63.261,-14.973 -9.801,-8.179 -15.211,-17.918 -15.653,-40.531 0.825,-20.824 7.454,-33.16 34.52,-48.809 20.629,-8.902 68.512,-23.238 138.582,-40.668 130.57,-30.781 226.5,-69.05 289.461,-119.543 C 831.465,381.648 866.738,303.055 866.27,210.965 866.563,143.379 849.609,81.4492 816.602,27.332 810.984,21.75 812.727,0.0117188 835.078,0.0117188 h 235.242 c 31.09,0 56.28,25.2499812 56.28,56.4179812 z M 404.242,218.66 c -59.051,15.422 -118.019,30.305 -177.89,44.766 -83.7,22.902 -154.5004,53.644 -210.3911,93.613 -0.6601,0.481 -1.289,0.938 -1.9179,1.379 C 9.25391,361.895 0,364.91 0,347.656 V 230.371 c 0,-7.648 4.83203,-12.355 10.3438,-12.355 43.2421,0 97.3162,-0.028 130.6172,-0.028 27.023,0.332 50.113,-10.539 66.191,-23.828 16.321,-13.234 27.871,-27.793 40.071,-40.273 24.968,-24.524 47.129,-44.446 112.328,-45.457 36.621,-0.149 60.16,7.34 72.09,16.73 11.601,9.379 17.562,20.27 18.101,44.547 -0.211,12.039 -3.019,19.199 -9.422,26.941 -6.304,7.54 -17.777,15.45 -36.078,22.012" /><path
            id="path16"
            style="fill:#3483a2;fill-opacity:1;fill-rule:nonzero;stroke:none"
            d="m 705.469,0 c 9.636,0 18.254,6.03125 21.23,9.10938 53.828,55.94142 79.258,121.37862 79.696,201.85562 -0.477,77.519 -26.278,133.32 -80.243,177.687 -50.234,40.84 -139.179,78.25 -265.464,107.661 -73.758,18.492 -122.297,32.601 -150.18,44.742 l -1.039,0.496 -0.992,0.472 c -40.997,20.614 -68.504,59.149 -67.657,103.321 -0.472,34.832 12.36,68.133 39.028,88.687 26.468,20.543 60.754,27.985 101.043,28.082 50.656,0.602 86.418,-17.597 108.89,-39.074 22.407,-21.394 34.617,-40.898 47.235,-49.258 8.382,-5.687 16.304,-9.328 33.922,-9.578 h 179.453 c 11.882,0.512 11.882,2.602 13.449,3.93 1.433,1.594 3.289,7.101 3.211,13.332 0,3.387 -0.481,6.758 -0.891,8.508 C 750.098,754.25 716.98,804.965 664.211,845.805 596.316,897.98 504.641,925.441 385.422,925.531 248.227,925.461 143.98,894.262 68.9805,835.156 44.8672,816.074 23.3398,795.605 5.39063,773.684 1.40625,768.953 0,764.375 0,758.934 V 464.355 c 0,-3.925 0.0976563,-11.738 5.51953,-16.738 4.63677,-5.129 6.59767,-7.121 11.80857,-12.09 49.918,-47.285 126.5669,-85.879 225.4299,-112.785 59.84,-14.453 119.582,-29.453 179.422,-45.144 l 1.304,-0.344 1.079,-0.371 c 25.726,-9.051 47.5,-21.836 63.367,-40.254 15.988,-18.359 24.359,-42.422 24.148,-66.934 0.551,-36.98 -13.621,-72.0466 -42.25,-93.3044 C 441.527,55.1094 404.688,47.2383 360.859,47.1602 300.559,46.8008 258.297,65.2891 229.563,88.3984 200.996,111.379 184.41,135.574 170.25,146.309 c -9.602,7.285 -15.43,10.097 -28.043,10.429 -31.84,0 -98.539,0.02 -111.1757,0.02 C 7.875,156.758 0.15625,143.484 0.15625,125.73 0.15625,117.32 0,56.4414 0,56.4414 0,25.25 26.957,0 58.0352,0 H 705.469"/></g></g></svg>